<?xml version="1.0" standalone="no"?>
<!DOCTYPE svg PUBLIC "-//W3C//DTD SVG 20010904//EN"
 "http://www.w3.org/TR/2001/REC-SVG-20010904/DTD/svg10.dtd">
<svg version="1.0" xmlns="http://www.w3.org/2000/svg"
 width="8000.000000pt" height="6831.000000pt" viewBox="0 0 8000.000000 6831.000000"
 preserveAspectRatio="xMidYMid meet">

<g transform="translate(0.000000,6831.000000) scale(0.100000,-0.100000)"
fill="#F58634" stroke="none">
<path d="M39754 67986 c-60 -28 -124 -83 -165 -142 -24 -35 -29 -53 -29 -101
-1 -297 -105 -612 -299 -899 -194 -288 -437 -529 -971 -964 -434 -352 -631
-554 -812 -830 -346 -527 -361 -1088 -43 -1574 16 -25 16 -26 -1 -32 -148 -52
-414 -165 -553 -235 -197 -99 -306 -175 -448 -313 -444 -427 -578 -963 -355
-1419 47 -96 48 -99 28 -108 -12 -5 -90 -36 -174 -69 -403 -159 -873 -394
-1167 -583 -557 -359 -1101 -902 -1486 -1487 -491 -743 -778 -1595 -847 -2515
-9 -126 -9 -747 0 -880 31 -446 128 -998 258 -1474 27 -101 50 -187 50 -191 0
-4 -19 -4 -42 1 -73 14 -287 10 -378 -7 l-85 -15 -41 -62 c-169 -257 -211
-763 -113 -1392 100 -648 304 -1316 689 -2260 232 -570 327 -841 404 -1155 95
-386 121 -608 120 -1010 0 -348 -13 -479 -84 -832 -23 -110 -38 -203 -35 -207
4 -3 109 -6 233 -6 215 1 232 2 327 28 328 89 584 255 789 511 38 47 71 85 72
83 2 -1 39 -89 84 -196 370 -883 842 -1676 1300 -2182 l68 -76 -23 -129 c-147
-794 -429 -1447 -825 -1909 -246 -286 -581 -537 -837 -626 -104 -37 -1057
-361 -1158 -394 -38 -13 -236 -80 -440 -150 -203 -69 -494 -168 -645 -220
-243 -82 -623 -212 -1190 -406 -96 -33 -258 -89 -360 -124 -313 -107 -754
-260 -935 -324 -33 -12 -103 -33 -155 -47 -457 -122 -940 -369 -1370 -698
-111 -85 -315 -260 -413 -355 -128 -123 -358 -388 -489 -562 -413 -553 -725
-1193 -943 -1932 -37 -128 -139 -538 -340 -1372 -20 -82 -50 -206 -66 -275
-33 -135 -31 -126 -293 -1220 -98 -404 -190 -789 -206 -855 -16 -66 -94 -397
-175 -735 -80 -338 -160 -671 -176 -740 -34 -141 -173 -731 -350 -1485 -66
-280 -126 -537 -134 -570 -8 -33 -21 -91 -30 -130 -9 -38 -75 -322 -146 -630
-487 -2098 -848 -3754 -928 -4255 -49 -304 -56 -400 -56 -745 1 -341 9 -437
60 -691 132 -654 475 -1299 1028 -1934 132 -151 517 -535 687 -686 704 -622
2128 -1670 3130 -2304 107 -67 199 -126 203 -130 9 -8 -179 -120 -200 -120 -6
0 -93 39 -194 86 -261 122 -278 130 -534 246 -465 213 -1134 512 -1335 598
-36 15 -123 53 -195 85 -355 155 -1179 505 -1495 635 -63 26 -257 106 -430
177 -525 217 -1623 654 -2180 868 -52 20 -140 54 -195 75 -258 101 -933 355
-1310 495 -1536 569 -3023 1089 -4570 1598 -582 192 -772 253 -1310 424 -278
88 -826 259 -975 304 -383 117 -691 209 -780 234 -52 15 -104 32 -115 38 -11
7 -30 12 -42 12 -18 1 -20 -2 -10 -14 9 -10 11 -99 9 -350 -4 -498 33 -1457
73 -1893 3 -29 14 -156 25 -283 21 -247 66 -701 75 -750 2 -16 14 -108 25
-203 11 -95 22 -185 24 -200 3 -15 7 -49 11 -77 66 -530 193 -1293 316 -1900
342 -1693 829 -3312 1443 -4794 42 -101 76 -188 76 -193 0 -4 -10 -6 -23 -3
-22 5 -146 22 -507 70 -102 14 -198 27 -215 29 -47 8 -1036 133 -1185 151 -74
9 -148 18 -165 20 -31 5 -323 40 -630 75 -93 11 -186 22 -205 25 -47 7 -420
49 -760 85 -151 17 -291 32 -310 35 -19 2 -125 14 -235 25 -110 11 -216 22
-235 25 -19 3 -127 14 -240 25 -113 11 -221 22 -240 25 -74 10 -919 92 -1385
135 -692 65 -1259 114 -1885 165 -168 13 -327 27 -355 30 -27 3 -205 17 -395
30 -190 14 -367 27 -395 30 -27 3 -183 14 -345 25 -162 11 -315 22 -340 25
-25 2 -189 14 -365 25 -176 11 -345 22 -375 25 -30 3 -206 14 -390 25 -184 11
-366 22 -405 25 -158 12 -983 57 -1470 80 -842 39 -969 45 -997 51 -14 3 -29
0 -33 -5 -3 -6 0 -11 7 -11 8 0 118 -118 244 -262 221 -252 651 -723 834 -913
628 -654 1291 -1316 1765 -1761 629 -591 937 -872 1465 -1335 3034 -2661 6300
-4907 9575 -6581 686 -351 1122 -559 1970 -943 682 -308 1770 -741 2560 -1020
501 -176 735 -254 1215 -405 1406 -441 2939 -803 4337 -1025 240 -38 609 -92
793 -115 91 -11 176 -23 190 -25 14 -2 108 -13 210 -25 102 -11 201 -23 220
-26 80 -11 567 -56 865 -79 575 -45 818 -57 1803 -85 336 -10 486 -7 1347 21
418 13 1207 61 1390 84 22 2 65 7 95 10 1346 129 2562 332 3845 640 l100 24
675 0 c640 0 1160 10 1639 31 l214 10 166 -66 c457 -181 840 -320 1334 -485
l359 -120 241 80 c635 211 1049 361 1567 570 106 43 126 48 140 37 32 -29
1024 -57 2034 -57 l780 0 145 -35 c1739 -417 3566 -667 5281 -723 831 -28
1018 -31 1348 -21 964 28 1161 36 1552 65 267 20 579 45 627 50 21 3 135 14
253 25 117 12 228 23 245 25 16 2 113 14 215 25 102 12 196 23 210 25 14 2 99
14 190 25 502 64 1346 202 1810 296 819 166 1316 281 1990 460 1780 473 3694
1162 5420 1952 96 44 207 94 245 112 494 225 1656 806 2126 1063 35 19 159 87
274 149 2259 1232 4603 2804 6775 4542 655 524 1449 1193 2010 1692 188 167
590 531 690 623 792 734 1290 1217 1883 1826 586 602 908 948 1316 1413 112
128 211 232 220 232 14 0 14 2 1 10 -8 5 -22 8 -30 5 -18 -5 -114 -10 -575
-30 -696 -30 -2342 -122 -2680 -150 -33 -2 -204 -14 -380 -25 -176 -11 -342
-23 -370 -25 -27 -3 -207 -16 -400 -30 -523 -37 -1667 -126 -1795 -140 -25 -2
-157 -14 -293 -25 -137 -11 -269 -23 -295 -25 -26 -3 -173 -16 -327 -30 -508
-45 -1234 -114 -1685 -159 -656 -67 -747 -77 -780 -81 -19 -2 -125 -14 -235
-25 -110 -11 -213 -22 -230 -25 -16 -2 -120 -13 -230 -25 -330 -35 -1586 -180
-1680 -195 -17 -2 -107 -13 -200 -24 -530 -64 -1754 -224 -1990 -261 -33 -6
-72 -10 -87 -10 l-27 0 35 83 c195 450 479 1211 680 1817 455 1372 823 2917
1050 4405 4 22 8 49 10 60 2 11 15 103 29 205 14 102 28 196 30 210 3 14 14
99 25 190 12 91 23 176 25 190 2 14 13 108 25 210 11 102 23 201 25 220 6 40
50 507 65 680 5 63 17 216 25 340 8 124 18 259 20 300 20 283 27 513 32 1090
4 532 8 658 19 670 12 14 10 16 -9 15 -12 -1 -33 -7 -47 -13 -14 -7 -140 -46
-280 -88 -662 -196 -1535 -468 -2330 -726 -4020 -1303 -7991 -2807 -11360
-4303 -408 -181 -353 -156 -795 -358 -307 -140 -718 -329 -819 -378 -22 -10
-46 -19 -54 -19 -21 0 -115 71 -105 80 4 4 82 54 173 110 835 522 1913 1294
2815 2018 1074 861 1737 1700 2029 2567 122 361 167 642 171 1070 5 505 -33
756 -315 2056 -205 946 -468 2107 -804 3549 -120 514 -233 1001 -256 1095 -10
44 -96 404 -189 800 -310 1309 -573 2414 -976 4085 -339 1406 -365 1505 -485
1845 -413 1163 -1103 2076 -2025 2676 -321 209 -750 403 -1085 489 -41 11
-120 36 -175 55 -95 34 -227 80 -620 215 -93 32 -316 109 -495 170 -179 62
-422 145 -540 185 -118 40 -395 135 -615 210 -220 75 -431 147 -470 160 -38
13 -263 89 -500 170 -236 81 -554 189 -705 240 -151 51 -363 123 -470 160
-107 36 -224 75 -260 86 -36 12 -103 41 -150 66 -671 358 -1163 1054 -1423
2018 -42 156 -100 421 -122 563 l-16 102 86 97 c124 139 190 222 303 385 220
315 419 653 622 1058 97 192 290 608 290 624 0 2 9 24 21 50 l20 47 82 -77
c223 -208 481 -338 772 -389 95 -16 184 -19 346 -9 l105 7 -43 210 c-42 212
-69 393 -81 567 -13 182 -6 592 13 703 2 12 9 60 15 107 52 400 181 844 415
1420 206 508 261 648 340 865 243 670 391 1247 456 1785 30 247 31 591 1 775
-32 198 -81 339 -154 441 -26 37 -37 43 -86 53 -124 23 -236 31 -326 21 -49
-6 -90 -9 -93 -7 -2 2 21 96 51 208 131 495 212 963 244 1414 10 137 9 786 -1
915 -9 115 -11 131 -33 302 -126 983 -528 1903 -1165 2662 -362 432 -824 834
-1245 1084 -320 190 -869 450 -1184 562 -36 13 -68 26 -73 30 -4 3 7 32 24 63
77 142 119 314 119 486 0 189 -37 339 -130 526 -127 257 -383 530 -645 687
-114 69 -499 240 -638 284 -31 10 -57 22 -57 28 0 6 9 25 21 41 34 51 115 216
143 293 69 193 91 469 52 666 -51 260 -185 533 -381 776 -175 217 -323 358
-700 666 -278 226 -345 284 -499 428 -485 451 -737 905 -740 1331 l-1 130 -42
56 c-56 76 -113 122 -179 148 -71 27 -126 26 -190 -3z m9256 -34572 c61 -208
145 -496 186 -639 42 -143 84 -287 94 -320 10 -33 64 -215 119 -405 115 -398
207 -714 656 -2255 179 -616 414 -1421 521 -1790 108 -368 233 -798 279 -955
438 -1504 564 -1936 631 -2170 36 -124 74 -254 85 -290 17 -56 18 -66 5 -75
-49 -37 -1014 -787 -1261 -981 -535 -420 -1170 -927 -1583 -1262 -84 -68 -158
-122 -165 -119 -16 6 -357 680 -462 912 -662 1459 -1006 2752 -955 3582 57
947 469 2766 1237 5473 137 484 454 1565 489 1669 2 8 7 12 9 9 3 -2 54 -175
115 -384z m-17911 -324 c67 -217 147 -471 176 -565 30 -93 110 -348 179 -565
68 -217 144 -458 169 -535 70 -217 195 -608 234 -730 19 -60 52 -164 73 -230
21 -66 54 -169 73 -230 20 -60 72 -227 117 -370 45 -143 101 -323 125 -400
294 -936 768 -2657 839 -3047 45 -245 68 -499 68 -763 1 -248 -2 -300 -28
-545 -101 -975 -515 -2075 -1189 -3164 -53 -86 -101 -158 -105 -161 -5 -3 -89
60 -187 140 -328 269 -366 300 -798 646 -806 646 -1774 1407 -2349 1848 -95
73 -135 109 -132 120 3 9 17 59 31 111 15 52 66 230 115 395 48 165 122 419
165 565 42 146 94 324 115 395 21 72 104 357 185 635 80 278 155 532 165 565
10 33 52 177 94 320 41 143 149 514 240 825 90 311 289 993 441 1515 152 523
346 1186 430 1475 84 289 178 611 208 715 46 156 395 1356 413 1418 3 10 7 17
9 15 1 -2 57 -181 124 -398z"/>
</g>
</svg>
