<?xml version="1.0" standalone="no"?>
<!DOCTYPE svg PUBLIC "-//W3C//DTD SVG 20010904//EN"
 "http://www.w3.org/TR/2001/REC-SVG-20010904/DTD/svg10.dtd">
<svg version="1.0" xmlns="http://www.w3.org/2000/svg"
 width="512.000000pt" height="512.000000pt" viewBox="0 0 512.000000 512.000000"
 preserveAspectRatio="xMidYMid meet">

<g transform="translate(0.000000,512.000000) scale(0.100000,-0.100000)"
fill="#F58634" stroke="none">
<path d="M205 4371 c11 -10 545 -451 1187 -980 l1168 -960 1195 970 c657 534
1195 975 1195 980 0 5 -949 9 -2382 9 -2336 0 -2382 0 -2363 -19z"/>
<path d="M2 2457 l3 -1603 24 -36 c13 -19 40 -46 59 -59 l36 -24 2436 0 2436
0 36 24 c19 13 46 40 59 59 l24 36 3 1588 c1 873 0 1588 -3 1588 -3 0 -547
-440 -1208 -977 -661 -537 -1221 -990 -1243 -1006 -51 -36 -115 -45 -166 -24
-21 9 -585 467 -1255 1019 -669 552 -1223 1007 -1230 1011 -11 7 -13 -270 -11
-1596z"/>
</g>
</svg>
