<?xml version="1.0" standalone="no"?>
<!DOCTYPE svg PUBLIC "-//W3C//DTD SVG 20010904//EN"
 "http://www.w3.org/TR/2001/REC-SVG-20010904/DTD/svg10.dtd">
<svg version="1.0" xmlns="http://www.w3.org/2000/svg"
 width="626.000000pt" height="442.000000pt" viewBox="0 0 626.000000 442.000000"
 preserveAspectRatio="xMidYMid meet">

<g transform="translate(0.000000,442.000000) scale(0.100000,-0.100000)"
fill="#000000" stroke="none">
<path d="M3468 3363 c6 -2 18 -2 25 0 6 3 1 5 -13 5 -14 0 -19 -2 -12 -5z"/>
<path d="M3645 3336 c142 -30 252 -73 346 -136 80 -52 174 -145 221 -219 25
-40 27 -52 23 -108 -3 -45 -1 -63 8 -63 7 0 25 -7 41 -15 19 -10 33 -12 40 -5
8 6 36 0 84 -19 84 -32 102 -46 51 -38 -20 3 -55 3 -77 0 -35 -5 -42 -10 -47
-34 -5 -20 -21 -37 -58 -60 -65 -40 -94 -64 -181 -147 -143 -139 -219 -280
-261 -484 -3 -18 -12 -28 -23 -28 -9 0 -104 19 -210 43 l-194 42 8 55 c4 30 8
80 8 110 l1 55 -75 12 c-48 8 -80 19 -87 30 -17 23 -16 119 2 223 8 47 15 101
15 120 1 32 6 25 55 -70 30 -58 78 -134 106 -168 49 -61 52 -68 61 -145 8 -78
28 -130 28 -77 0 14 7 34 15 44 32 42 6 125 -44 141 -37 11 -122 160 -161 280
-40 125 -63 147 -211 205 -28 11 -66 32 -84 46 -47 36 -86 39 -246 19 -174
-22 -362 -16 -529 15 -161 30 -265 25 -352 -18 -35 -17 -123 -81 -197 -142
-73 -60 -136 -110 -141 -110 -5 0 -12 5 -15 10 -11 17 -43 11 -50 -10 -8 -25
-28 -36 -82 -45 -34 -5 -43 -4 -43 8 0 8 -18 34 -40 58 -36 39 -39 41 -26 14
52 -109 10 -194 -119 -239 -101 -35 -176 -55 -189 -50 -27 11 -38 66 -26 139
6 37 9 69 7 72 -7 6 -46 -93 -58 -146 -9 -44 -8 -56 8 -88 14 -31 27 -41 66
-54 43 -14 46 -17 25 -22 -12 -4 -42 -7 -65 -7 -30 0 -50 -7 -70 -24 l-28 -25
37 -15 c47 -20 68 -20 95 -1 19 14 22 13 39 -13 26 -38 27 -185 1 -222 -9 -13
-17 -36 -17 -51 0 -21 8 -30 40 -44 39 -18 43 -18 95 -1 33 10 59 25 66 38 6
11 34 46 62 77 29 32 66 75 83 96 l31 39 84 2 c46 0 94 4 106 8 27 9 77 -12
122 -51 l33 -28 -53 -78 c-77 -112 -89 -137 -89 -187 0 -25 -7 -70 -15 -100
-9 -30 -20 -68 -24 -85 -8 -26 -9 -27 -10 -6 -1 21 -3 22 -18 10 -15 -12 -16
-12 -11 7 3 12 2 28 -3 35 -6 10 -9 8 -9 -9 0 -13 -4 -20 -10 -17 -5 3 -10 -1
-10 -10 0 -9 -5 -13 -11 -9 -6 3 -15 0 -20 -7 -6 -10 -9 -3 -9 21 l-1 35 -14
-30 c-11 -24 -14 -26 -15 -10 -1 17 -3 17 -11 -5 -8 -18 -12 -21 -18 -11 -7
11 -9 11 -14 0 -4 -9 -6 -7 -7 6 -1 11 -2 24 -1 28 1 5 -3 6 -9 2 -5 -3 -10
-16 -10 -28 0 -14 -3 -18 -8 -10 -5 8 -13 9 -22 3 -21 -14 -28 -12 -33 8 -4
13 -5 11 -6 -5 -1 -18 -7 -23 -27 -23 -26 0 -26 8 4 43 15 16 14 17 -4 11 -15
-5 -15 -2 5 14 17 14 20 21 10 24 -8 3 1 14 26 31 22 15 35 27 30 27 -29 0
-113 -74 -131 -115 -11 -26 -13 -27 -14 -8 0 12 5 34 10 50 l10 28 -21 -25
-22 -25 6 44 c5 41 5 42 -10 21 -16 -23 -16 -22 -35 29 -11 29 -22 51 -24 48
-2 -2 0 -27 6 -56 10 -55 4 -105 -11 -95 -5 3 -9 -3 -9 -12 0 -10 -3 -14 -7
-11 -3 4 -12 2 -20 -4 -10 -9 -13 -6 -13 15 0 15 -4 25 -9 22 -10 -7 -22 74
-14 88 4 6 7 21 8 34 1 21 -1 21 -11 7 -11 -15 -14 -14 -29 12 -16 28 -16 22
0 -36 6 -20 -18 -36 -38 -24 -7 3 -9 2 -4 -2 4 -5 -6 -22 -22 -39 -16 -17 -37
-44 -45 -61 -15 -28 -16 -28 -16 -7 0 13 5 33 11 45 l12 22 -23 -20 -23 -20 6
40 c5 35 4 38 -7 23 -17 -23 -26 -23 -26 0 -1 9 -10 33 -20 52 -21 37 -22 36
-5 -46 8 -35 -5 -100 -16 -82 -6 9 -9 6 -10 -12 0 -14 -3 -19 -6 -12 -4 10 -8
10 -19 1 -11 -9 -14 -7 -14 15 0 15 -4 25 -9 22 -13 -8 -21 77 -11 115 8 30 8
32 -5 16 -13 -18 -14 -17 -30 10 -10 17 -14 20 -11 8 3 -11 8 -32 11 -47 10
-38 -2 -53 -26 -32 -18 16 -18 15 -9 -17 14 -48 12 -54 -9 -35 -18 16 -18 15
-14 -11 4 -28 4 -27 -28 10 -17 21 -49 47 -70 57 -50 26 -63 25 -21 0 22 -13
32 -26 28 -35 -3 -8 -1 -15 3 -15 14 0 1 -38 -14 -44 -21 -8 -38 20 -33 53 2
17 1 28 -4 25 -4 -3 -8 -23 -8 -45 0 -38 -14 -49 -32 -24 -4 6 -8 1 -8 -11 0
-26 44 -68 92 -88 39 -17 234 -50 358 -61 44 -4 118 -21 180 -42 l105 -36 310
-7 c330 -7 317 -5 450 -65 33 -14 98 -38 145 -51 84 -25 90 -25 430 -24 348 1
518 -8 665 -35 44 -8 139 -16 212 -19 137 -5 170 -13 329 -80 123 -52 454 -87
979 -106 635 -22 730 -12 775 83 14 31 20 33 119 53 132 27 144 38 135 137 -6
62 -4 70 20 105 14 21 42 53 61 72 22 21 35 43 35 59 0 30 -38 134 -41 111 0
-8 -5 0 -9 19 -5 19 -5 57 0 85 4 28 7 52 5 54 -2 2 -12 -20 -23 -49 l-19 -52
-17 24 c-17 24 -17 23 -11 -21 6 -43 6 -44 -10 -25 -15 19 -16 18 -10 -25 6
-45 6 -45 -8 -15 -8 17 -26 41 -41 54 -14 14 -26 31 -26 38 0 8 -4 12 -9 9 -5
-4 -16 -3 -24 0 -14 5 -14 11 -2 52 12 41 12 45 0 28 -8 -11 -15 -26 -15 -33
0 -18 -10 -16 -26 5 -11 14 -12 11 -3 -21 12 -44 2 -128 -12 -106 -6 10 -9 3
-9 -21 0 -24 -3 -31 -9 -21 -5 7 -14 10 -20 7 -6 -4 -11 0 -11 9 0 9 -5 13
-11 9 -8 -5 -10 15 -7 69 4 81 -3 86 -26 22 l-14 -40 -21 48 c-12 26 -19 52
-16 57 9 14 -66 169 -114 238 -39 55 -41 61 -51 172 -5 63 -10 150 -10 193 0
73 1 77 23 77 12 0 29 4 36 9 12 7 5 14 -27 26 -34 14 -44 24 -52 54 -5 20
-26 55 -46 77 -67 73 -89 107 -144 218 -66 132 -112 176 -185 176 -53 0 -67
15 -69 79 -1 40 2 51 16 55 25 6 23 48 -3 72 -15 14 -24 16 -37 7 -13 -8 -23
-6 -45 9 -29 21 -37 21 -154 -2 -76 -15 -81 -27 -42 -106 16 -33 29 -74 29
-93 0 -19 3 -32 6 -29 7 7 54 -39 54 -53 0 -18 28 -21 53 -5 22 15 25 15 37 1
10 -12 10 -19 2 -27 -7 -7 -12 -19 -12 -27 0 -30 -55 -121 -72 -121 -66 0
-224 24 -231 35 -4 8 -20 16 -37 20 -22 5 -40 23 -76 78 -88 133 -183 217
-332 291 -80 40 -221 81 -310 90 -39 4 -23 -1 53 -18z m1177 -705 c15 -25 28
-55 28 -68 0 -13 6 -34 14 -46 30 -48 28 -132 -5 -268 l-31 -128 16 -118 c9
-65 19 -133 23 -150 5 -30 3 -33 -18 -33 -24 -1 -24 -1 4 -21 15 -11 27 -27
27 -35 0 -11 -9 -10 -42 7 -45 22 -43 18 6 -19 22 -17 24 -22 11 -22 -14 0
-13 -3 6 -21 13 -11 17 -17 9 -13 -10 5 -9 0 4 -14 15 -17 16 -22 5 -22 -8 0
-21 6 -28 13 -11 10 -12 9 -6 -3 8 -13 7 -13 -8 -1 -9 7 -17 24 -17 37 0 12
-4 26 -10 29 -6 4 -10 -8 -10 -29 0 -37 -14 -42 -45 -16 -12 10 -15 22 -11 44
4 16 3 26 -1 23 -4 -4 -9 -26 -12 -49 -6 -40 -7 -41 -23 -24 -11 10 -18 13
-18 5 0 -9 -4 -8 -15 1 -12 10 -15 9 -15 -4 0 -12 -7 -15 -25 -12 -13 3 -29 7
-35 11 -5 3 -10 1 -10 -6 0 -6 -8 -9 -20 -6 -11 3 -20 1 -20 -4 0 -5 -11 -8
-25 -7 -23 2 -23 3 -7 22 16 18 16 19 -3 13 -17 -6 -17 -4 4 13 13 11 18 20
12 20 -18 0 -3 19 33 41 17 10 26 19 20 19 -23 0 -104 -61 -119 -89 -20 -40
-29 -39 -21 1 l6 31 -21 -19 c-22 -19 -22 -19 -15 6 21 71 21 67 -2 46 -30
-26 -36 -4 -18 59 13 43 13 47 1 31 -8 -11 -15 -26 -15 -33 0 -17 -16 -17 -24
0 -3 6 -4 -1 -1 -17 8 -36 -5 -117 -16 -110 -5 3 -9 -7 -9 -23 0 -20 -3 -24
-9 -14 -5 7 -14 10 -20 7 -6 -4 -11 0 -11 9 0 9 -5 13 -11 9 -8 -5 -10 15 -8
69 5 81 -3 90 -23 26 l-12 -41 -17 24 c-18 23 -18 23 -12 -22 l6 -45 -22 25
c-20 22 -21 22 -12 3 6 -12 11 -32 11 -45 0 -19 -5 -16 -26 20 -14 23 -30 42
-35 42 -10 0 -30 42 -23 49 2 3 15 -6 29 -19 14 -13 28 -21 31 -18 8 9 -17 45
-41 58 l-22 12 20 39 c11 22 18 41 16 43 -2 2 -33 10 -69 18 l-65 14 2 64 c6
147 68 325 153 433 58 75 154 153 235 192 56 26 87 34 160 39 50 4 117 13 150
20 69 15 75 12 117 -53z m-1885 -413 c13 -12 23 -25 23 -29 0 -9 -47 4 -80 21
-18 10 -20 14 -9 21 22 14 41 10 66 -13z m2123 -58 c1 -43 36 -107 133 -244
120 -170 115 -161 79 -142 -48 25 -51 19 -7 -11 21 -15 34 -28 27 -31 -8 -2
-4 -11 10 -24 20 -17 21 -19 4 -13 -19 6 -19 5 -3 -13 13 -14 14 -21 5 -30
-18 -18 -28 -14 -29 11 0 16 -2 18 -7 7 -10 -23 -54 -19 -62 5 -7 19 -8 18
-15 -5 -8 -24 -8 -24 -16 -5 -7 19 -8 19 -8 1 -1 -20 -1 -20 -16 0 -11 15 -15
16 -15 4 -1 -8 -6 -4 -12 10 l-11 25 -7 -30 c-4 -16 -8 -25 -9 -18 0 7 -8 10
-16 7 -10 -4 -15 0 -15 11 0 9 -4 14 -9 10 -5 -3 -12 3 -14 12 -3 11 -5 5 -6
-12 -1 -21 -4 -26 -10 -17 -7 11 -9 11 -14 -1 -3 -9 -14 -14 -24 -13 -15 3
-17 11 -15 57 2 30 8 59 12 64 16 20 22 169 10 249 -12 78 -11 81 16 138 29
61 41 60 44 -2z m-1781 -29 c40 -28 39 -44 0 -36 -61 14 -79 24 -79 46 0 18 4
20 28 15 15 -4 38 -15 51 -25z m-369 -17 c97 -32 97 -35 0 -15 -30 7 -124 50
-110 50 3 1 52 -15 110 -35z m-330 0 c123 -2 149 -8 196 -47 44 -37 62 -44
159 -61 56 -11 95 -23 103 -33 15 -21 16 -119 1 -180 -9 -35 -14 -42 -21 -29
-5 9 -14 16 -19 16 -12 0 -2 -38 16 -60 9 -12 9 -20 0 -37 -6 -13 -15 -20 -18
-16 -4 3 -7 0 -7 -7 0 -7 -3 -10 -7 -7 -3 4 -12 2 -20 -4 -10 -9 -13 -6 -13
12 0 17 -3 20 -9 11 -6 -10 -10 -8 -15 10 -5 14 -9 18 -13 10 -2 -6 -9 -10
-14 -6 -5 3 -10 -5 -10 -18 -1 -18 -2 -19 -6 -5 -5 18 -5 18 -19 0 -12 -17
-13 -16 -14 12 l-1 30 -11 -25 c-10 -24 -10 -24 -18 -5 l-9 20 -1 -20 c-1 -12
-4 -15 -7 -7 -4 10 -8 9 -19 -5 -12 -17 -13 -16 -14 12 l-1 30 -14 -30 c-7
-16 -14 -23 -14 -15 -1 9 -4 11 -9 5 -14 -19 -32 -15 -33 7 -1 21 -2 21 -12
-4 -7 -17 -18 -28 -30 -28 -14 0 -17 4 -12 18 4 9 8 23 9 31 2 8 11 20 21 27
11 8 13 14 6 14 -18 0 -3 19 33 41 40 25 26 25 -23 -1 -36 -18 -70 -52 -98
-96 -9 -15 -10 -12 -3 19 8 37 8 38 -11 21 -17 -15 -19 -15 -19 -1 0 9 5 28
10 44 l10 28 -20 -23 -20 -24 -10 27 c-5 14 -10 30 -10 34 0 4 -6 16 -14 27
-13 17 -14 15 -6 -21 15 -63 12 -105 -10 -132 -17 -22 -20 -23 -21 -7 0 11 -3
13 -6 7 -7 -19 -23 -16 -23 5 0 10 -5 23 -11 29 -7 7 -10 35 -7 73 3 42 1 56
-5 44 -9 -15 -12 -13 -29 17 -11 19 -16 25 -12 14 12 -37 14 -104 2 -111 -8
-5 -9 -2 -5 9 18 46 -60 -15 -87 -68 l-16 -30 0 30 c0 17 6 37 13 45 6 8 0 4
-15 -9 -31 -27 -33 -23 -18 29 l10 35 -19 -24 c-17 -22 -18 -22 -25 -5 -23 57
-45 342 -29 367 4 6 57 7 142 2 75 -5 188 -9 251 -11z m-545 -121 c15 -49 35
-107 45 -129 20 -45 15 -70 -7 -32 -10 20 -11 16 -6 -29 6 -55 -6 -70 -26 -35
-8 13 -9 6 -5 -28 6 -43 6 -44 -10 -25 -16 19 -16 18 -10 -20 l6 -40 -23 35
c-26 36 -103 100 -122 100 -6 0 6 -12 28 -27 25 -17 34 -28 26 -31 -10 -3 -7
-10 10 -24 20 -16 20 -19 5 -14 -19 7 -19 6 -1 -14 10 -11 15 -23 11 -27 -4
-4 -11 -1 -16 7 -8 13 -10 13 -10 1 0 -8 -3 -11 -7 -8 -3 4 -12 2 -20 -4 -10
-9 -13 -6 -13 12 0 19 -2 21 -10 9 -8 -12 -10 -11 -10 8 0 12 -3 22 -6 22 -10
0 -34 -28 -35 -42 0 -7 -4 -4 -9 7 -5 11 -9 14 -9 8 -2 -23 -21 -14 -22 10 0
21 -1 21 -11 -3 -10 -24 -10 -24 -18 -5 l-9 20 -1 -20 c-1 -12 -4 -15 -7 -7
-4 10 -8 9 -19 -5 -12 -17 -13 -16 -14 12 l-2 30 -13 -30 c-8 -16 -14 -23 -15
-15 0 11 -2 12 -8 3 -4 -7 -13 -9 -21 -4 -11 7 -9 13 8 30 12 12 21 34 21 50
0 21 9 37 33 55 27 22 29 26 12 26 -17 0 -14 6 16 33 20 17 46 48 57 67 12 19
47 61 79 92 51 50 72 61 120 67 7 0 23 -36 38 -86z m1283 -1 c5 -15 -7 -15
-64 -1 -42 11 -51 18 -38 31 9 9 97 -17 102 -30z m312 -53 c91 -22 172 -44
180 -49 29 -18 3 -18 -75 1 -44 10 -131 27 -193 38 -105 18 -142 31 -142 52 0
11 28 6 230 -42z m-384 -28 c32 -17 71 -35 87 -40 15 -6 37 -27 48 -46 12 -20
30 -40 41 -46 11 -6 17 -16 15 -23 -3 -7 -1 -19 4 -27 7 -11 10 -10 15 7 4 16
11 19 36 16 l30 -5 -3 49 -3 49 40 -3 c55 -4 251 -62 265 -78 24 -29 1 -32
-40 -4 -24 17 -49 30 -55 30 -6 0 7 -12 29 -27 21 -15 34 -28 27 -31 -8 -2 -4
-11 10 -23 21 -17 21 -18 3 -12 -19 6 -19 5 3 -19 27 -30 28 -38 2 -38 -12 0
-24 10 -30 23 -6 14 -9 16 -9 6 -1 -27 -54 -18 -62 11 -7 24 -7 24 -8 3 -1
-24 -20 -33 -22 -10 0 6 -4 3 -9 -8 -7 -17 -9 -17 -9 -2 -1 20 -17 23 -24 5
-3 -7 -6 -4 -7 7 -1 18 -2 18 -15 -5 -9 -15 -14 -19 -15 -10 0 12 -2 13 -9 1
-7 -11 -10 -9 -16 8 -3 12 -10 19 -15 16 -5 -3 -11 3 -13 12 -3 11 -5 5 -6
-12 -1 -23 -3 -27 -11 -15 -8 13 -10 12 -10 -3 0 -13 -6 -16 -25 -13 -34 6
-45 14 -46 34 0 9 -3 12 -5 5 -3 -6 -25 9 -52 36 -26 26 -58 50 -70 53 -31 8
-28 3 15 -23 32 -20 34 -23 17 -29 -18 -7 -17 -8 4 -14 12 -4 22 -12 22 -17 0
-6 -6 -7 -12 -3 -7 4 -5 -2 5 -13 23 -26 22 -33 -5 -27 -13 3 -30 6 -38 8 -8
1 -20 17 -25 34 -16 47 -25 50 -25 6 0 -29 -3 -35 -10 -24 -9 13 -10 13 -10 0
-1 -11 -6 -9 -19 7 -11 14 -17 33 -14 50 l3 28 -10 -25 c-6 -14 -9 -35 -7 -47
5 -27 -5 -29 -29 -5 -17 16 -17 16 -12 -5 6 -24 -6 -30 -30 -15 -10 7 -8 14 8
34 17 22 19 35 14 86 -8 73 2 152 20 152 7 0 39 -13 72 -29z m814 -81 c0 -12
-8 -12 -35 0 -18 8 -17 9 8 9 15 1 27 -3 27 -9z m-1937 -80 c4 -16 4 -37 0
-46 -9 -25 -23 4 -23 49 0 44 14 42 23 -3z m-1130 5 c-3 -9 -8 -14 -10 -11 -3
3 -2 9 2 15 9 16 15 13 8 -4z m-45 -97 c-2 -6 -10 -14 -16 -16 -7 -2 -10 2 -6
12 7 18 28 22 22 4z m1388 -15 c-10 -10 -19 5 -10 18 6 11 8 11 12 0 2 -7 1
-15 -2 -18z m1798 12 c3 -8 1 -15 -4 -15 -6 0 -10 7 -10 15 0 8 2 15 4 15 2 0
6 -7 10 -15z m1510 0 c3 -8 1 -15 -4 -15 -6 0 -10 7 -10 15 0 8 2 15 4 15 2 0
6 -7 10 -15z"/>
<path d="M4422 1867 c-7 -16 -12 -38 -12 -50 1 -20 2 -19 16 6 8 16 14 38 11
50 -3 21 -4 20 -15 -6z"/>
<path d="M4497 1785 c-26 -25 -35 -45 -19 -45 4 1 25 16 46 35 31 28 35 35 20
35 -11 0 -32 -11 -47 -25z"/>
<path d="M2322 1804 c-23 -16 -48 -54 -35 -54 4 1 26 16 47 35 39 35 30 49
-12 19z"/>
<path d="M2626 1789 c-39 -46 -31 -58 12 -18 20 18 41 37 47 41 5 5 0 8 -12 8
-12 0 -33 -14 -47 -31z"/>
<path d="M2021 1875 c-1 -29 10 -65 20 -65 13 0 10 20 -6 55 -10 23 -14 26
-14 10z"/>
<path d="M1935 1774 c26 -19 50 -32 53 -29 11 10 -56 65 -79 65 -16 0 -10 -8
26 -36z"/>
<path d="M3361 1781 c24 -21 46 -35 48 -29 5 15 -50 68 -72 68 -15 0 -10 -9
24 -39z"/>
<path d="M625 1858 c8 -35 21 -55 30 -46 7 7 -21 78 -30 78 -4 0 -4 -15 0 -32z"/>
<path d="M1460 1811 c25 -21 47 -34 49 -28 5 14 -55 67 -77 67 -11 0 -2 -13
28 -39z"/>
<path d="M916 1791 c-44 -46 -26 -54 21 -10 31 28 37 39 24 39 -9 0 -30 -13
-45 -29z"/>
<path d="M1235 1790 c-42 -44 -21 -50 23 -7 24 24 31 37 21 37 -8 0 -28 -13
-44 -30z"/>
<path d="M5630 1784 c22 -20 43 -34 47 -30 10 10 -48 66 -69 66 -13 0 -8 -9
22 -36z"/>
<path d="M514 1797 c10 -7 32 -23 47 -35 22 -18 29 -20 29 -9 0 19 -52 57 -77
56 -17 0 -17 -1 1 -12z"/>
<path d="M1543 1790 c-6 -14 -8 -31 -5 -39 8 -20 24 14 19 42 -3 22 -4 22 -14
-3z"/>
</g>
</svg>
